<mxfile host="app.diagrams.net" modified="2024-02-11T15:35:59.143Z" agent="Mozilla/5.0 (Windows NT 10.0; Win64; x64) AppleWebKit/537.36 (KHTML, like Gecko) Chrome/121.0.0.0 Safari/537.36 Edg/121.0.0.0" etag="qNXFbE7E6lIrjMSORodS" version="23.1.2" type="device">
  <diagram name="Page-1" id="Vd6SU4HHTgT0mpTnz9Eb">
    <mxGraphModel dx="1002" dy="569" grid="1" gridSize="10" guides="1" tooltips="1" connect="1" arrows="1" fold="1" page="1" pageScale="1" pageWidth="827" pageHeight="1169" math="0" shadow="0">
      <root>
        <mxCell id="0" />
        <mxCell id="1" parent="0" />
        <mxCell id="6v9LWpVdTuLYzKwnKzSy-1" value="Anonymous" style="rounded=0;whiteSpace=wrap;html=1;" vertex="1" parent="1">
          <mxGeometry x="540" y="200" width="120" height="60" as="geometry" />
        </mxCell>
        <mxCell id="6v9LWpVdTuLYzKwnKzSy-2" value="Guest&lt;br&gt;" style="whiteSpace=wrap;html=1;" vertex="1" parent="1">
          <mxGeometry x="130" y="200" width="120" height="60" as="geometry" />
        </mxCell>
        <mxCell id="6v9LWpVdTuLYzKwnKzSy-3" value="Creator&lt;br&gt;" style="whiteSpace=wrap;html=1;" vertex="1" parent="1">
          <mxGeometry x="540" y="370" width="120" height="60" as="geometry" />
        </mxCell>
        <mxCell id="6v9LWpVdTuLYzKwnKzSy-5" value="Event" style="whiteSpace=wrap;html=1;" vertex="1" parent="1">
          <mxGeometry x="130" y="370" width="120" height="60" as="geometry" />
        </mxCell>
        <mxCell id="6v9LWpVdTuLYzKwnKzSy-8" value="" style="endArrow=classic;html=1;rounded=0;" edge="1" parent="1" source="6v9LWpVdTuLYzKwnKzSy-3" target="6v9LWpVdTuLYzKwnKzSy-5">
          <mxGeometry width="50" height="50" relative="1" as="geometry">
            <mxPoint x="390" y="320" as="sourcePoint" />
            <mxPoint x="440" y="270" as="targetPoint" />
          </mxGeometry>
        </mxCell>
        <mxCell id="6v9LWpVdTuLYzKwnKzSy-9" value="Creates&lt;br&gt;/Manages" style="edgeLabel;html=1;align=center;verticalAlign=middle;resizable=0;points=[];" vertex="1" connectable="0" parent="6v9LWpVdTuLYzKwnKzSy-8">
          <mxGeometry x="-0.1297" y="1" relative="1" as="geometry">
            <mxPoint as="offset" />
          </mxGeometry>
        </mxCell>
        <mxCell id="6v9LWpVdTuLYzKwnKzSy-10" value="" style="endArrow=classic;html=1;rounded=0;" edge="1" parent="1" source="6v9LWpVdTuLYzKwnKzSy-2" target="6v9LWpVdTuLYzKwnKzSy-5">
          <mxGeometry width="50" height="50" relative="1" as="geometry">
            <mxPoint x="390" y="320" as="sourcePoint" />
            <mxPoint x="440" y="270" as="targetPoint" />
          </mxGeometry>
        </mxCell>
        <mxCell id="6v9LWpVdTuLYzKwnKzSy-11" value="Decides to participate" style="edgeLabel;html=1;align=center;verticalAlign=middle;resizable=0;points=[];" vertex="1" connectable="0" parent="6v9LWpVdTuLYzKwnKzSy-10">
          <mxGeometry x="0.2909" relative="1" as="geometry">
            <mxPoint x="60" y="-51" as="offset" />
          </mxGeometry>
        </mxCell>
        <mxCell id="6v9LWpVdTuLYzKwnKzSy-12" value="" style="endArrow=classic;html=1;rounded=0;" edge="1" parent="1" source="6v9LWpVdTuLYzKwnKzSy-1" target="6v9LWpVdTuLYzKwnKzSy-2">
          <mxGeometry width="50" height="50" relative="1" as="geometry">
            <mxPoint x="390" y="320" as="sourcePoint" />
            <mxPoint x="440" y="270" as="targetPoint" />
          </mxGeometry>
        </mxCell>
        <mxCell id="6v9LWpVdTuLYzKwnKzSy-13" value="Creates an account" style="edgeLabel;html=1;align=center;verticalAlign=middle;resizable=0;points=[];" vertex="1" connectable="0" parent="6v9LWpVdTuLYzKwnKzSy-12">
          <mxGeometry x="-0.7434" relative="1" as="geometry">
            <mxPoint x="-23" y="-10" as="offset" />
          </mxGeometry>
        </mxCell>
        <mxCell id="6v9LWpVdTuLYzKwnKzSy-14" value="" style="endArrow=classic;html=1;rounded=0;entryX=0.86;entryY=0.967;entryDx=0;entryDy=0;entryPerimeter=0;" edge="1" parent="1" source="6v9LWpVdTuLYzKwnKzSy-3" target="6v9LWpVdTuLYzKwnKzSy-2">
          <mxGeometry width="50" height="50" relative="1" as="geometry">
            <mxPoint x="450" y="350" as="sourcePoint" />
            <mxPoint x="500" y="300" as="targetPoint" />
          </mxGeometry>
        </mxCell>
        <mxCell id="6v9LWpVdTuLYzKwnKzSy-15" value="extends invitation to participate in an event" style="edgeLabel;html=1;align=center;verticalAlign=middle;resizable=0;points=[];" vertex="1" connectable="0" parent="6v9LWpVdTuLYzKwnKzSy-14">
          <mxGeometry x="-0.2461" y="-2" relative="1" as="geometry">
            <mxPoint x="115" as="offset" />
          </mxGeometry>
        </mxCell>
      </root>
    </mxGraphModel>
  </diagram>
</mxfile>
